# xmcd
#
# Track frame offsets:
# 150
# 6797
# 21867
# 41900
# 58787
# 78942
# 93742
# 108947
# 125995
# 137840
# 158292
# 171755
# 188809
# 200887
#
# Disc length: 2936 seconds
#
# Revision: 0
# Processed by: cddbd v1.5.2PL0 Copyright (c) Steve Scherf et al.
# Submitted via: Audion 3.0.2 (http://www.panic.com/audion/)
#
DISCID=c00b760e
DTITLE=karisik - Klasikturkmuzigi2
DYEAR=1900
DGENRE=
TTITLE0=huzzam pesrev
TTITLE1=pisman olurda birgun
TTITLE2=kapat gözlerini
TTITLE3=bir capkinin elinden
TTITLE4=yesil ördek 
TTITLE5=unutulmus birer birer
TTITLE6=kalenin bedenleri
TTITLE7=gamzedeyim 
TTITLE8=siyah ebrulerin
TTITLE9=ne olursun guzelim
TTITLE10=klarnet taksimi
TTITLE11=bu aksam butun mey
TTITLE12=ruya gibi her hatira
TTITLE13=yemeni baglamis
EXTD=
EXTT0=
EXTT1=
EXTT2=
EXTT3=
EXTT4=
EXTT5=
EXTT6=
EXTT7=
EXTT8=
EXTT9=
EXTT10=
EXTT11=
EXTT12=
EXTT13=
PLAYORDER=
